<svg t="1617257864457" class="icon" viewBox="0 0 1024 1024" version="1.1" xmlns="http://www.w3.org/2000/svg" p-id="8619" width="48" height="48"><path d="M669.538462 1024H118.153846V0h551.384616a236.307692 236.307692 0 0 1 236.307692 236.307692v551.384616a236.307692 236.307692 0 0 1-236.307692 236.307692z" fill="#35404D" p-id="8620"></path><path d="M515.780923 350.916923a29.302154 29.302154 0 0 0-41.393231 0l-147.337846 147.180308a28.711385 28.711385 0 0 0-3.032615 2.481231l-0.433231 0.43323a30.050462 30.050462 0 0 0 0 41.905231l0.433231 0.433231a28.868923 28.868923 0 0 0 3.032615 2.481231l147.495385 147.140923a29.302154 29.302154 0 0 0 41.393231 0l0.393846-0.433231a29.223385 29.223385 0 0 0 0-41.353846l-129.536-129.220923 129.378461-129.260308a29.223385 29.223385 0 0 0 0-41.353846l-0.393846-0.433231z m108.425846 342.055385a29.302154 29.302154 0 0 0 41.393231 0l0.433231-0.433231a29.223385 29.223385 0 0 0 0-41.353846l-129.457231-129.220923 129.417846-129.260308a29.223385 29.223385 0 0 0 0-41.353846l-0.433231-0.433231a29.302154 29.302154 0 0 0-41.39323 0l-147.337847 147.180308a28.987077 28.987077 0 0 0-3.032615 2.481231l-0.393846 0.43323a30.011077 30.011077 0 0 0 0 41.905231l0.393846 0.433231a28.947692 28.947692 0 0 0 3.032615 2.481231l147.377231 147.140923z" fill="#FFFFFF" p-id="8621"></path></svg>