<svg t="1618473382070" class="icon" viewBox="0 0 1024 1024" version="1.1" xmlns="http://www.w3.org/2000/svg" p-id="4147" width="48" height="48"><path d="M368.128 585.216c-15.36-0.512-28.672 11.264-29.696 27.136v125.952c-0.512 16.384 12.288 30.208 28.672 30.72s30.208-12.288 30.72-28.672V614.4c0-15.872-13.312-29.184-29.696-29.184z m287.744 0c-15.36-0.512-28.672 11.264-29.696 27.136v125.952c-0.512 16.384 12.288 30.208 28.672 30.72s30.208-12.288 30.72-28.672V614.4c0-15.872-13.312-29.184-29.696-29.184z m-143.872 40.96c-15.36-0.512-28.672 11.264-29.696 27.136v43.52c-0.512 16.384 12.288 30.208 28.672 30.72 16.384 0.512 30.208-12.288 30.72-28.672V655.36c0-15.872-13.312-29.184-29.696-29.184z" p-id="4148" fill="#1296db"></path><path d="M808.96 503.296V471.04c2.56-161.792-126.464-294.4-288.256-296.96H512c-166.4 0-296.96 130.56-296.96 296.96v32.256c-95.744 5.632-168.96 87.552-163.328 183.296 5.12 91.648 80.896 163.328 172.544 163.84h20.48c15.872 0.512 28.672-11.264 29.696-27.136V471.04c0-135.68 102.4-237.568 237.568-237.568s237.568 102.4 237.568 237.568v349.696c-0.512 15.872 11.264 28.672 27.136 29.696h23.04c96.256-0.512 173.568-78.848 173.056-174.592-0.512-91.648-72.192-167.424-163.84-172.544z" p-id="4149" fill="#1296db"></path></svg>