<?xml version="1.0" standalone="no"?><!DOCTYPE svg PUBLIC "-//W3C//DTD SVG 1.1//EN" "http://www.w3.org/Graphics/SVG/1.1/DTD/svg11.dtd"><svg t="1618378716211" class="icon" viewBox="0 0 1024 1024" version="1.1" xmlns="http://www.w3.org/2000/svg" p-id="3250" xmlns:xlink="http://www.w3.org/1999/xlink" width="48" height="48"><defs><style type="text/css"></style></defs><path d="M353.54851555 942.8223368c-4.91924543 9.96794469-19.80643555 14.88719013-29.77438024 14.88719011h-4.91924544c-9.96794469 0-24.72568098-4.91924543-34.69362568-14.88719011L76.12896395 734.91949037c-4.91924543-9.96794469-9.96794469-19.80643555-9.9679447-34.69362568s4.91924543-24.72568098 14.88719014-34.69362567l321.95166814-321.95166816c0 19.80643555 9.96794469 34.69362569 24.72568099 49.58081581l208.03230024 208.03230024c14.88719013 14.88719013 29.77438025 19.80643555 44.53211655 24.72568099L353.54851555 942.8223368zM769.48366222 596.14498765l208.03230025-208.03230024c39.61287111-39.61287111 39.61287111-99.03217778 0-138.64504889L769.48366222 41.5647921c-9.96794469-9.96794469-19.80643555-14.88719013-34.69362569-19.80643557-4.91924543-4.91924543-19.80643555-4.91924543-34.69362567-4.91924542s-24.72568098 0-34.69362568 4.91924542c-9.96794469 4.91924543-24.72568098 9.96794469-34.69362568 19.80643557L427.85501235 254.51633778 46.48403753 635.75785876c-39.61287111 39.61287111-39.61287111 99.03217778 0 138.64504889l208.03230025 208.03230025c14.88719013 14.88719013 39.61287111 24.72568098 59.41930667 24.72568099h594.19306666v-49.45136198H412.96782222L769.48366222 596.14498765z" p-id="3251" fill="#cdcdcd"></path></svg>